# xmcd
#
# Track frame offsets:
#	150
#	13825
#	27592
#	44807
#	59877
#	72006
#	88939
#	104951
#	118514
#	132059
#	145214
#	156380
#	176368
#	189781
#	202066
#	215795
#	228149
#	238075
#
# Disc length: 3334 seconds
#
# Revision: 0
# Processed by: cddbd v1.4PL0 Copyright (c) Steve Scherf et al.
# Submitted via: dBpowerAMP V4.0
#
DISCID=180d0412
DTITLE=Various Artist - Country Storytime -- 18 Country Stories in a Song
DYEAR=2003
DGENRE=Country
TTITLE0=Jimmy Dean - Big Bad John
TTITLE1=Bobby Bare - Miller's Cave
TTITLE2=Charlie Rich - My Elusive Dreams
TTITLE3=Porter Wagoner - The Cold Hard Facts of Life
TTITLE4=Johnny Cash - Give My Love to Rose
TTITLE5=Conway Twitty - Don't Cry, Joni
TTITLE6=Bill Anderson - Mama Sang a Song
TTITLE7=Stonewall Jackson - BJ the DJ
TTITLE8=Johnny Russell - Catfish John
TTITLE9=Merle Haggard - Kentucky Gambler
TTITLE10=Faron Young - Yellow Bandana
TTITLE11=Ferlin Husky - Little Joe
TTITLE12=Dave Dudley - The Pool Shark
TTITLE13=Bobby Bare - Streets of Baltimore
TTITLE14=Porter Wagoner - Skid Row Joe
TTITLE15=Don Gibson - Kaw Liga
TTITLE16=Johnny Cash - Ballad of a Teenage Queen
TTITLE17=Stonewall Jackson - Life to Go
EXTD=thomas rush\nK-Tel Presents (LOL!)
EXTT0=
EXTT1=
EXTT2=
EXTT3=
EXTT4=
EXTT5=
EXTT6=
EXTT7=
EXTT8=
EXTT9=
EXTT10=
EXTT11=
EXTT12=
EXTT13=
EXTT14=
EXTT15=
EXTT16=
EXTT17=
PLAYORDER=
